<?xml version="1.0" encoding="UTF-8" standalone="no"?>
<svg
   xmlns:dc="http://purl.org/dc/elements/1.1/"
   xmlns:cc="http://creativecommons.org/ns#"
   xmlns:rdf="http://www.w3.org/1999/02/22-rdf-syntax-ns#"
   xmlns:svg="http://www.w3.org/2000/svg"
   xmlns="http://www.w3.org/2000/svg"
   xmlns:sodipodi="http://sodipodi.sourceforge.net/DTD/sodipodi-0.dtd"
   xmlns:inkscape="http://www.inkscape.org/namespaces/inkscape"
   data-name="Layer 1"
   width="606.58215"
   height="432.0506"
   viewBox="0 0 606.58215 432.0506"
   version="1.1"
   id="svg66"
   sodipodi:docname="undraw_order_ride_re_372k.svg"
   inkscape:version="1.0.2-2 (e86c870879, 2021-01-15)">
  <metadata
     id="metadata72">
    <rdf:RDF>
      <cc:Work
         rdf:about="">
        <dc:format>image/svg+xml</dc:format>
        <dc:type
           rdf:resource="http://purl.org/dc/dcmitype/StillImage" />
        <dc:title></dc:title>
      </cc:Work>
    </rdf:RDF>
  </metadata>
  <defs
     id="defs70" />
  <sodipodi:namedview
     pagecolor="#ffffff"
     bordercolor="#666666"
     borderopacity="1"
     objecttolerance="10"
     gridtolerance="10"
     guidetolerance="10"
     inkscape:pageopacity="0"
     inkscape:pageshadow="2"
     inkscape:window-width="1366"
     inkscape:window-height="705"
     id="namedview68"
     showgrid="false"
     inkscape:zoom="0.82982356"
     inkscape:cx="401.3586"
     inkscape:cy="183.73525"
     inkscape:window-x="-8"
     inkscape:window-y="-8"
     inkscape:window-maximized="1"
     inkscape:current-layer="svg66" />
  <path
     d="m 325.10061,540.37506 a 10.22114,10.22114 0 0 0 -10.20953,10.20973 v 23.88568 a 10.22114,10.22114 0 0 0 10.20953,10.20973 h 12.94974 a 10.22114,10.22114 0 0 0 10.20953,-10.20973 v -23.88568 a 10.22114,10.22114 0 0 0 -10.20953,-10.20973 z"
     transform="translate(-140.70892,-233.9747)"
     fill="#3f3d56"
     id="path2" />
  <path
     d="m 564.48154,585.4747 h -12.94973 a 11.01656,11.01656 0 0 1 -11.004,-11.00423 v -23.88568 a 11.01656,11.01656 0 0 1 11.004,-11.00423 h 12.94973 a 11.01655,11.01655 0 0 1 11.004,11.00423 v 23.88568 a 11.01655,11.01655 0 0 1 -11.004,11.00423 z"
     transform="translate(-140.70892,-233.9747)"
     fill="#3f3d56"
     id="path4" />
  <path
     d="M 555.88912,566.35017 H 332.89854 c -10.14844,0 -18.40471,-5.98277 -18.40471,-13.33651 V 510.1338 l 11.06824,-11.65635 h 239.81657 l 8.91519,11.68079 v 42.85542 c 0,7.35374 -8.25627,13.33651 -18.40471,13.33651 z"
     transform="translate(-140.70892,-233.9747)"
     fill="#cccccc"
     id="path6" />
  <path
     d="M 564.338,519.92883 H 326.83353 L 324.42,482.92 l 1.53584,-3.787 8.9276,-21.96927 H 554.6805 l 12.07144,24.94747 z"
     transform="translate(-140.70892,-233.9747)"
     fill="#cccccc"
     id="path8" />
  <polygon
     points="424.154,245.149 425.64,248.216 423.868,276.023 371.614,276.023 371.614,255.366 "
     fill="#ffffff"
     id="polygon10" />
  <polygon
     points="185.615,245.308 237.345,255.366 237.345,276.023 185.877,276.023 184.113,249.01 "
     fill="#ffffff"
     id="polygon12" />
  <path
     d="m 553.35569,463.51965 h -217.15 l 23.16063,-77.20183 a 15.4952,15.4952 0 0 1 14.76295,-11.09345 l 143.811,-1.36981 a 15.56437,15.56437 0 0 1 15.219,11.6645 z"
     transform="translate(-140.70892,-233.9747)"
     fill="#cccccc"
     id="path14" />
  <path
     d="M 536.63916,456.21966 352.887,454.04078 a 1.48477,1.48477 0 0 1 -1.39631,-1.93785 l 17.61552,-54.96041 a 1.48476,1.48476 0 0 1 1.41392,-1.03159 h 147.79563 a 1.48476,1.48476 0 0 1 1.41372,1.031 l 18.341,57.1393 a 1.48477,1.48477 0 0 1 -1.43132,1.93843 z"
     transform="translate(-140.70892,-233.9747)"
     fill="#ffffff"
     id="path16" />
  <path
     d="m 469.54471,383.27562 h -49.528 c -0.41737,0 -0.79594,-0.41083 -0.98795,-1.07265 a 3.33948,3.33948 0 0 1 0.0789,-2.05917 l 4.08423,-10.32844 c 0.2082,-0.52643 0.54809,-0.84066 0.90906,-0.84066 h 41.35956 c 0.361,0 0.70086,0.31423 0.90906,0.84066 l 4.08423,10.32844 a 3.33948,3.33948 0 0 1 0.0789,2.05917 c -0.19203,0.66182 -0.5706,1.07265 -0.98797,1.07265 z"
     transform="translate(-140.70892,-233.9747)"
     fill="#f9a826"
     id="path18" />
  <path
     d="m 336.34245,461.93066 h -32.57431 v -7.15977 a 8.73991,8.73991 0 0 1 8.73014,-8.73014 h 23.84417 z"
     transform="translate(-140.70892,-233.9747)"
     fill="#cccccc"
     id="path20" />
  <path
     d="m 585.814,461.93066 h -32.5743 v -15.88991 h 23.84417 a 8.7399,8.7399 0 0 1 8.73014,8.73014 z"
     transform="translate(-140.70892,-233.9747)"
     fill="#cccccc"
     id="path22" />
  <rect
     x="136.06773"
     y="602.08331"
     width="169.21049"
     height="1.99958"
     transform="matrix(0.94112,-0.33808,0.33808,0.94112,-331.60746,-123.85679)"
     fill="#3f3d56"
     id="rect24" />
  <rect
     x="666.90948"
     y="518.47791"
     width="1.9995"
     height="169.21037"
     transform="rotate(-70.24519,431.23809,586.11615)"
     fill="#3f3d56"
     id="rect26" />
  <path
     d="m 453.63975,615.0253 h -9.532 v -12.31164 h 9.532 z m 0,-24.6242 h -9.532 v -12.31165 h 9.532 z"
     transform="translate(-140.70892,-233.9747)"
     fill="#e6e6e6"
     id="path28" />
  <path
     d="m 453.63975,666.0253 h -9.532 v -12.31164 h 9.532 z m 0,-24.6242 h -9.532 v -12.31165 h 9.532 z"
     transform="translate(-140.70892,-233.9747)"
     fill="#e6e6e6"
     id="path30" />
  <circle
     cx="303.79474"
     cy="51.811031"
     r="47.28997"
     fill="#f9a826"
     id="circle60" />
  <polygon
     points="293.365,47.172 300.067,55.789 322.707,31.889 330.278,39.062 299.288,71.773 285.134,53.574 "
     fill="#ffffff"
     id="polygon62" />
</svg>
